<svg width="201" height="56" viewBox="0 0 201 56" fill="none" xmlns="http://www.w3.org/2000/svg">
<path d="M189.069 47.2316H185.932V27.6571H189.069V47.2316ZM200.037 34.2779C200.037 35.7364 199.739 36.9933 199.144 38.0488C198.55 39.0851 197.763 39.8815 196.784 40.4381C195.805 40.9754 194.74 41.2441 193.589 41.2441C192.456 41.2441 191.468 40.9658 190.624 40.4093C189.799 39.8336 189.156 39.0276 188.695 37.9913C188.254 36.9358 188.033 35.698 188.033 34.2779C188.033 32.8386 188.254 31.6008 188.695 30.5645C189.156 29.5282 189.799 28.7318 190.624 28.1752C191.468 27.5995 192.456 27.3116 193.589 27.3116C194.74 27.3116 195.805 27.5899 196.784 28.1464C197.763 28.6838 198.55 29.4706 199.144 30.5069C199.739 31.5432 200.037 32.8002 200.037 34.2779ZM196.813 34.2779C196.813 33.3951 196.63 32.6467 196.266 32.0326C195.901 31.3993 195.412 30.9291 194.798 30.622C194.203 30.2958 193.541 30.1327 192.811 30.1327C192.217 30.1327 191.631 30.2958 191.056 30.622C190.48 30.9291 190 31.3897 189.616 32.0038C189.252 32.6179 189.069 33.3759 189.069 34.2779C189.069 35.1798 189.252 35.9379 189.616 36.552C190 37.1661 190.48 37.6362 191.056 37.9625C191.631 38.2695 192.217 38.4231 192.811 38.4231C193.541 38.4231 194.203 38.2695 194.798 37.9625C195.412 37.6362 195.901 37.1661 196.266 36.552C196.63 35.9187 196.813 35.1606 196.813 34.2779Z" fill="#183153"/>
<path d="M169.643 34.2777C169.643 32.9151 169.95 31.7157 170.564 30.6794C171.197 29.6431 172.051 28.8371 173.126 28.2614C174.2 27.6665 175.419 27.369 176.782 27.369C178.144 27.369 179.353 27.6665 180.409 28.2614C181.483 28.8371 182.337 29.6431 182.971 30.6794C183.604 31.7157 183.92 32.9151 183.92 34.2777C183.92 35.621 183.604 36.8204 182.971 37.8759C182.337 38.9122 181.483 39.7278 180.409 40.3227C179.353 40.8985 178.144 41.1863 176.782 41.1863C175.419 41.1863 174.2 40.8985 173.126 40.3227C172.051 39.7278 171.197 38.9122 170.564 37.8759C169.95 36.8204 169.643 35.621 169.643 34.2777ZM172.838 34.2777C172.838 35.1029 173.011 35.8321 173.356 36.4654C173.701 37.0795 174.172 37.5689 174.766 37.9335C175.361 38.2789 176.033 38.4516 176.782 38.4516C177.511 38.4516 178.173 38.2789 178.768 37.9335C179.382 37.5689 179.862 37.0795 180.207 36.4654C180.552 35.8321 180.725 35.1029 180.725 34.2777C180.725 33.4525 180.552 32.7232 180.207 32.0899C179.862 31.4566 179.382 30.9673 178.768 30.6218C178.173 30.2764 177.511 30.1037 176.782 30.1037C176.033 30.1037 175.361 30.2764 174.766 30.6218C174.172 30.9673 173.701 31.4566 173.356 32.0899C173.011 32.7232 172.838 33.4525 172.838 34.2777Z" fill="#183153"/>
<path d="M158.98 18.4456V40.8987H155.871V18.4456H158.98ZM164.392 32.8386C164.392 31.8598 164.19 31.121 163.787 30.622C163.403 30.1231 162.78 29.8736 161.916 29.8736C161.34 29.8736 160.832 29.9983 160.391 30.2478C159.949 30.4973 159.604 30.8427 159.354 31.2841C159.105 31.7255 158.98 32.2437 158.98 32.8386H158.232C158.232 31.7831 158.423 30.8427 158.807 30.0175C159.191 29.1923 159.728 28.5303 160.419 28.0313C161.129 27.5323 161.983 27.2829 162.981 27.2829C163.96 27.2829 164.785 27.4748 165.457 27.8586C166.148 28.2424 166.666 28.8181 167.011 29.5858C167.357 30.3342 167.529 31.2745 167.529 32.4068V40.8987H164.392V32.8386Z" fill="#183153"/>
<path d="M141.605 34.4216C142.047 35.1893 142.517 35.8705 143.016 36.4654C143.534 37.0412 144.1 37.4921 144.714 37.8184C145.328 38.1254 146.019 38.279 146.787 38.279C147.708 38.279 148.457 38.0295 149.032 37.5305C149.608 37.0316 149.896 36.3887 149.896 35.6019C149.896 34.8534 149.713 34.2585 149.349 33.8171C148.984 33.3565 148.476 32.9727 147.823 32.6657C147.19 32.3394 146.451 32.0228 145.607 31.7157C145.108 31.543 144.551 31.3127 143.937 31.0249C143.323 30.7178 142.738 30.3436 142.181 29.9022C141.625 29.4416 141.164 28.8851 140.799 28.2326C140.435 27.561 140.252 26.7549 140.252 25.8146C140.252 24.7399 140.531 23.7996 141.087 22.9936C141.644 22.1684 142.392 21.5351 143.333 21.0937C144.292 20.6331 145.376 20.4028 146.585 20.4028C147.775 20.4028 148.812 20.6139 149.694 21.0361C150.577 21.4583 151.316 21.9957 151.911 22.6481C152.525 23.3006 153.005 23.9819 153.35 24.6919L150.587 26.2464C150.337 25.7474 150.021 25.2869 149.637 24.8647C149.253 24.4233 148.802 24.0778 148.284 23.8284C147.785 23.5597 147.2 23.4254 146.528 23.4254C145.588 23.4254 144.897 23.6461 144.455 24.0874C144.014 24.5096 143.793 25.0086 143.793 25.5843C143.793 26.1025 143.947 26.5726 144.254 26.9948C144.58 27.3978 145.079 27.7816 145.751 28.1463C146.422 28.5109 147.295 28.8851 148.37 29.2689C148.965 29.48 149.56 29.7487 150.155 30.0749C150.769 30.4012 151.326 30.8138 151.824 31.3127C152.323 31.7925 152.717 32.3586 153.005 33.0111C153.312 33.6636 153.465 34.4312 153.465 35.314C153.465 36.2543 153.283 37.0987 152.918 37.8472C152.554 38.5956 152.055 39.2289 151.421 39.747C150.788 40.246 150.069 40.6298 149.263 40.8985C148.476 41.1863 147.651 41.3303 146.787 41.3303C145.597 41.3303 144.494 41.1 143.477 40.6394C142.479 40.1596 141.605 39.5264 140.857 38.7395C140.109 37.9527 139.514 37.0987 139.072 36.1776L141.605 34.4216Z" fill="#183153"/>
<path d="M117.147 29.9886C116.782 29.5664 116.37 29.1154 115.909 28.6356C115.448 28.1367 115.045 27.5897 114.7 26.9948C114.374 26.3999 114.211 25.7474 114.211 25.0374C114.211 24.1546 114.431 23.3582 114.873 22.6481C115.333 21.9381 115.967 21.3815 116.773 20.9785C117.598 20.5755 118.548 20.374 119.622 20.374C120.735 20.374 121.676 20.5947 122.443 21.0361C123.23 21.4775 123.825 22.0532 124.228 22.7633C124.65 23.4541 124.861 24.2026 124.861 25.0086C124.861 25.5651 124.756 26.0833 124.545 26.563C124.353 27.0428 124.065 27.5034 123.681 27.9448C123.297 28.3861 122.827 28.8179 122.271 29.2401C121.714 29.6623 121.071 30.0941 120.342 30.5355C119.824 30.8617 119.267 31.1688 118.672 31.4566C118.077 31.7445 117.511 32.0612 116.974 32.4066C116.437 32.752 115.995 33.1646 115.65 33.6444C115.324 34.105 115.161 34.6711 115.161 35.3428C115.161 35.9569 115.324 36.5038 115.65 36.9836C115.976 37.4633 116.418 37.8375 116.974 38.1062C117.531 38.3557 118.173 38.4804 118.903 38.4804C119.785 38.4804 120.639 38.2885 121.465 37.9047C122.29 37.5209 123.086 37.0124 123.854 36.3791C124.622 35.7266 125.36 34.9877 126.07 34.1625C126.78 33.3181 127.462 32.4354 128.114 31.5142L130.36 33.0687C129.649 34.0474 128.882 35.0261 128.057 36.0048C127.251 36.9644 126.368 37.8376 125.408 38.6244C124.449 39.392 123.403 40.0157 122.271 40.4955C121.138 40.9752 119.901 41.2151 118.557 41.2151C117.387 41.2151 116.293 40.9944 115.276 40.553C114.259 40.0925 113.433 39.44 112.8 38.5956C112.186 37.7512 111.879 36.7437 111.879 35.573C111.879 34.7095 112.042 33.961 112.368 33.3277C112.695 32.6753 113.107 32.1091 113.606 31.6294C114.124 31.1496 114.681 30.7466 115.276 30.4203C115.871 30.0749 116.446 29.7775 117.003 29.528C117.579 29.2785 118.068 29.0578 118.471 28.8659C119.546 28.2902 120.38 27.6857 120.975 27.0524C121.57 26.3999 121.868 25.7762 121.868 25.1813C121.868 24.7591 121.772 24.3849 121.58 24.0586C121.407 23.7324 121.158 23.4733 120.831 23.2814C120.505 23.0703 120.102 22.9648 119.622 22.9648C118.893 22.9648 118.327 23.1759 117.924 23.5981C117.54 24.0011 117.348 24.5192 117.348 25.1525C117.348 25.7666 117.598 26.3711 118.097 26.966C118.615 27.5417 119.2 28.2038 119.853 28.9523L130.503 40.8985H126.848L117.147 29.9886Z" fill="#183153"/>
<path d="M91.3535 18.4456H94.9518V40.8987H91.3535V18.4456ZM99.8166 27.6571H104.278L98.5788 33.1264L104.854 40.8987H100.421L94.117 33.1264L99.8166 27.6571Z" fill="#F97316"/>
<path d="M80.999 34.2777C80.999 35.0453 81.1717 35.717 81.5171 36.2927C81.8626 36.8684 82.3231 37.3194 82.8989 37.6456C83.4938 37.9719 84.1462 38.135 84.8563 38.135C85.432 38.135 85.9886 38.0486 86.5259 37.8759C87.0632 37.684 87.543 37.4345 87.9652 37.1275C88.4066 36.8012 88.7424 36.427 88.9727 36.0048V39.8334C88.5121 40.2556 87.9076 40.5914 87.1592 40.8409C86.4299 41.0712 85.576 41.1863 84.5972 41.1863C83.1963 41.1863 81.9297 40.8985 80.7975 40.3227C79.6844 39.747 78.8016 38.941 78.1492 37.9047C77.5159 36.8492 77.1992 35.6402 77.1992 34.2777C77.1992 32.8959 77.5159 31.6869 78.1492 30.6506C78.8016 29.6143 79.6844 28.8083 80.7975 28.2326C81.9297 27.6569 83.1963 27.369 84.5972 27.369C85.576 27.369 86.4299 27.4938 87.1592 27.7432C87.9076 27.9735 88.5121 28.2902 88.9727 28.6932V32.5217C88.7424 32.0995 88.397 31.7349 87.9364 31.4278C87.495 31.1016 87.0057 30.8521 86.4683 30.6794C85.931 30.5067 85.3936 30.4203 84.8563 30.4203C84.1462 30.4203 83.4938 30.5931 82.8989 30.9385C82.3231 31.2647 81.8626 31.7157 81.5171 32.2914C81.1717 32.8671 80.999 33.5292 80.999 34.2777Z" fill="#F97316"/>
<path d="M71.0137 22.5331C71.0137 21.919 71.2344 21.4201 71.6757 21.0363C72.1171 20.6333 72.6449 20.4318 73.259 20.4318C73.8731 20.4318 74.3912 20.6333 74.8134 21.0363C75.2548 21.4201 75.4755 21.919 75.4755 22.5331C75.4755 23.1281 75.2548 23.627 74.8134 24.03C74.3912 24.433 73.8731 24.6345 73.259 24.6345C72.6449 24.6345 72.1171 24.433 71.6757 24.03C71.2344 23.627 71.0137 23.1281 71.0137 22.5331ZM71.4167 27.6571H75.0437V40.8986H71.4167V27.6571Z" fill="#F97316"/>
<path d="M64.5879 18.4456H68.3301V40.8987H64.5879V18.4456Z" fill="#F97316"/>
<path d="M49.0224 30.8235C49.0224 32.1476 49.3198 33.3086 49.9147 34.3066C50.5289 35.2853 51.3253 36.0433 52.304 36.5807C53.2827 37.0988 54.3478 37.3579 55.4992 37.3579C56.4588 37.3579 57.3128 37.2331 58.0612 36.9837C58.8096 36.7342 59.4813 36.3983 60.0762 35.9762C60.6903 35.554 61.2181 35.0934 61.6595 34.5944V39.229C60.8342 39.8815 59.9323 40.39 58.9536 40.7546C57.994 41.1193 56.7754 41.3016 55.2977 41.3016C53.7625 41.3016 52.3328 41.0521 51.0086 40.5531C49.7037 40.0542 48.5618 39.3345 47.5831 38.3942C46.6235 37.4538 45.8751 36.3504 45.3378 35.0838C44.8196 33.798 44.5605 32.3779 44.5605 30.8235C44.5605 29.269 44.8196 27.8585 45.3378 26.5919C45.8751 25.3061 46.6235 24.1931 47.5831 23.2527C48.5618 22.3124 49.7037 21.5927 51.0086 21.0938C52.3328 20.5948 53.7625 20.3453 55.2977 20.3453C56.7754 20.3453 57.994 20.5276 58.9536 20.8923C59.9323 21.2569 60.8342 21.7654 61.6595 22.4179V27.0525C61.2181 26.5535 60.6903 26.0929 60.0762 25.6708C59.4813 25.2486 58.8096 24.9127 58.0612 24.6632C57.3128 24.4138 56.4588 24.289 55.4992 24.289C54.3478 24.289 53.2827 24.5577 52.304 25.095C51.3253 25.6132 50.5289 26.3616 49.9147 27.3403C49.3198 28.3191 49.0224 29.4801 49.0224 30.8235Z" fill="#F97316"/>
<path fill-rule="evenodd" clip-rule="evenodd" d="M35.363 14.7797L38.5775 42.6969C38.6627 43.4369 38.5881 44.1865 38.3586 44.8951C38.1291 45.6037 37.7501 46.2548 37.2472 46.8042C36.6785 47.4294 35.984 47.9272 35.2094 48.2651C34.4348 48.603 33.5975 48.7734 32.7524 48.7651H30.9798L14.5864 33.0163C14.3111 32.7518 13.9669 32.57 13.5931 32.4919C13.2194 32.4138 12.8313 32.4425 12.473 32.5746C12.1148 32.7067 11.801 32.9369 11.5675 33.2389C11.3339 33.541 11.1901 33.9027 11.1525 34.2826L9.71607 48.7651H5.85912C5.01423 48.7733 4.17714 48.603 3.40269 48.2651C2.62825 47.9273 1.93394 47.4296 1.36527 46.8047C0.862281 46.2551 0.483138 45.604 0.253473 44.8954C0.0238078 44.1867 -0.0510254 43.4369 0.0340319 42.6968L3.2485 14.7797H8.78131V22.5306C8.78131 22.7632 8.87371 22.9863 9.03819 23.1508C9.20267 23.3152 9.42575 23.4076 9.65835 23.4076C9.89096 23.4076 10.114 23.3152 10.2785 23.1508C10.443 22.9863 10.5354 22.7632 10.5354 22.5306V14.7797H28.734V22.5306C28.734 22.7632 28.8264 22.9863 28.9909 23.1508C29.1554 23.3152 29.3784 23.4076 29.611 23.4076C29.8436 23.4076 30.0667 23.3152 30.2312 23.1508C30.3957 22.9863 30.4881 22.7632 30.4881 22.5306V14.7797H35.363ZM30.4881 14.7797V9.07514C30.4881 3.39487 25.6072 0 19.6347 0C13.6622 0 8.78131 3.39487 8.78131 9.07514V14.7797H10.5354V9.07514C10.5354 4.36214 14.6294 1.60353 19.6347 1.60353C24.64 1.60353 28.734 4.36214 28.734 9.07514V14.7797H30.4881Z" fill="#183153"/>
<path d="M14.1709 33.5716L14.1709 33.5716L28.0866 46.9401C28.2954 47.1408 28.4355 47.4023 28.4868 47.6873C28.538 47.9724 28.4979 48.2663 28.3721 48.5271L28.6873 48.6792L28.3721 48.5271C28.2463 48.788 28.0412 49.0024 27.7862 49.1397C27.5312 49.277 27.2394 49.3301 26.9524 49.2916C26.9523 49.2916 26.9523 49.2916 26.9523 49.2916L18.402 48.1424L18.2184 48.1177L18.0948 48.2557L12.3378 54.6809L12.3378 54.6809L12.3353 54.6837C12.1446 54.9013 11.889 55.0517 11.6062 55.1127C11.3235 55.1738 11.0286 55.1423 10.7651 55.0229L10.7651 55.0228L10.761 55.021L10.7379 55.0106L10.7379 55.0106L10.7348 55.0092C10.475 54.8925 10.2588 54.6964 10.1174 54.449C9.97607 54.2017 9.91674 53.916 9.94799 53.6328L9.94836 53.629L11.8529 34.4265L11.8529 34.4264C11.8783 34.17 11.9754 33.9258 12.133 33.7219L11.8562 33.5078L12.133 33.7219C12.2907 33.518 12.5025 33.3626 12.7443 33.2734C12.9861 33.1843 13.2482 33.1649 13.5004 33.2177C13.7527 33.2704 13.9851 33.3931 14.1709 33.5716Z" fill="#F97316" stroke="white" stroke-width="0.7"/>
<rect x="20.1562" y="30.2336" width="1" height="18.4886" rx="0.5" transform="rotate(-46.4635 20.1562 30.2336)" fill="#FED7A1"/>
<rect x="18.8691" y="25.9049" width="1" height="18.4886" rx="0.5" transform="rotate(-46.4635 18.8691 25.9049)" fill="#FED7A1"/>
<rect x="19.4668" y="23.4333" width="1" height="18.4886" rx="0.5" transform="rotate(-46.4635 19.4668 23.4333)" fill="#FED7A1"/>
</svg>
